<mxfile host="app.diagrams.net" agent="Mozilla/5.0 (Windows NT 10.0; Win64; x64; rv:144.0) Gecko/20100101 Firefox/144.0" version="28.2.8">
  <diagram name="Page-1" id="AInAbMpm5OMG-2KsAnRK">
    <mxGraphModel dx="1310" dy="723" grid="0" gridSize="10" guides="1" tooltips="1" connect="1" arrows="1" fold="1" page="1" pageScale="1" pageWidth="827" pageHeight="1169" background="light-dark(#FFFFFF,#4D4D4D)" math="0" shadow="0">
      <root>
        <mxCell id="0" />
        <mxCell id="1" parent="0" />
        <mxCell id="gKzMiSkVcHjNWzmuuc24-1" value="Antivirus" style="swimlane;fontStyle=1;align=center;verticalAlign=top;childLayout=stackLayout;horizontal=1;startSize=26;horizontalStack=0;resizeParent=1;resizeParentMax=0;resizeLast=0;collapsible=1;marginBottom=0;whiteSpace=wrap;html=1;" vertex="1" parent="1">
          <mxGeometry x="60" y="70" width="240" height="246" as="geometry" />
        </mxCell>
        <mxCell id="gKzMiSkVcHjNWzmuuc24-2" value="&lt;div&gt;- _charge: int&lt;/div&gt;&lt;div&gt;- _name: string&lt;/div&gt;&lt;div&gt;- _posX: int&lt;/div&gt;&lt;div&gt;- _posY: int&lt;/div&gt;&lt;div&gt;- _vitesse: int&lt;/div&gt;&lt;div&gt;&lt;br&gt;&lt;/div&gt;&lt;div&gt;+ X: int { get; set; }&lt;/div&gt;&lt;div&gt;+ Y: int { get; set; }&lt;/div&gt;&lt;div&gt;+ Name: string { get; set; }&lt;/div&gt;" style="text;strokeColor=none;fillColor=none;align=left;verticalAlign=top;spacingLeft=4;spacingRight=4;overflow=hidden;rotatable=0;points=[[0,0.5],[1,0.5]];portConstraint=eastwest;whiteSpace=wrap;html=1;" vertex="1" parent="gKzMiSkVcHjNWzmuuc24-1">
          <mxGeometry y="26" width="240" height="142" as="geometry" />
        </mxCell>
        <mxCell id="gKzMiSkVcHjNWzmuuc24-3" value="" style="line;strokeWidth=1;fillColor=none;align=left;verticalAlign=middle;spacingTop=-1;spacingLeft=3;spacingRight=3;rotatable=0;labelPosition=right;points=[];portConstraint=eastwest;strokeColor=inherit;" vertex="1" parent="gKzMiSkVcHjNWzmuuc24-1">
          <mxGeometry y="168" width="240" height="8" as="geometry" />
        </mxCell>
        <mxCell id="gKzMiSkVcHjNWzmuuc24-4" value="&lt;div&gt;+ MoveLeft(): void&lt;/div&gt;&lt;div&gt;+ MoveRight(): void&lt;/div&gt;+ Update(int): void" style="text;strokeColor=none;fillColor=none;align=left;verticalAlign=top;spacingLeft=4;spacingRight=4;overflow=hidden;rotatable=0;points=[[0,0.5],[1,0.5]];portConstraint=eastwest;whiteSpace=wrap;html=1;" vertex="1" parent="gKzMiSkVcHjNWzmuuc24-1">
          <mxGeometry y="176" width="240" height="70" as="geometry" />
        </mxCell>
        <mxCell id="gKzMiSkVcHjNWzmuuc24-5" value="&lt;div&gt;Munitions&lt;/div&gt;&lt;div&gt;&lt;br&gt;&lt;/div&gt;" style="swimlane;fontStyle=1;align=center;verticalAlign=top;childLayout=stackLayout;horizontal=1;startSize=26;horizontalStack=0;resizeParent=1;resizeParentMax=0;resizeLast=0;collapsible=1;marginBottom=0;whiteSpace=wrap;html=1;" vertex="1" parent="1">
          <mxGeometry x="405" y="70" width="240" height="184" as="geometry" />
        </mxCell>
        <mxCell id="gKzMiSkVcHjNWzmuuc24-6" value="&lt;div&gt;- _posX: int&lt;/div&gt;&lt;div&gt;- _posY: int&lt;/div&gt;&lt;div&gt;- _ammoSpeed: int&lt;/div&gt;&lt;div&gt;&lt;br&gt;&lt;/div&gt;&lt;div&gt;+ X: int { get; set; }&lt;/div&gt;&lt;div&gt;+ Y: int { get; set; }&lt;/div&gt;&lt;div&gt;+ AmmoSpeed: int { get; set; }&lt;/div&gt;" style="text;strokeColor=none;fillColor=none;align=left;verticalAlign=top;spacingLeft=4;spacingRight=4;overflow=hidden;rotatable=0;points=[[0,0.5],[1,0.5]];portConstraint=eastwest;whiteSpace=wrap;html=1;" vertex="1" parent="gKzMiSkVcHjNWzmuuc24-5">
          <mxGeometry y="26" width="240" height="117" as="geometry" />
        </mxCell>
        <mxCell id="gKzMiSkVcHjNWzmuuc24-7" value="" style="line;strokeWidth=1;fillColor=none;align=left;verticalAlign=middle;spacingTop=-1;spacingLeft=3;spacingRight=3;rotatable=0;labelPosition=right;points=[];portConstraint=eastwest;strokeColor=inherit;" vertex="1" parent="gKzMiSkVcHjNWzmuuc24-5">
          <mxGeometry y="143" width="240" height="8" as="geometry" />
        </mxCell>
        <mxCell id="gKzMiSkVcHjNWzmuuc24-8" value="+ Update(int): void" style="text;strokeColor=none;fillColor=none;align=left;verticalAlign=top;spacingLeft=4;spacingRight=4;overflow=hidden;rotatable=0;points=[[0,0.5],[1,0.5]];portConstraint=eastwest;whiteSpace=wrap;html=1;" vertex="1" parent="gKzMiSkVcHjNWzmuuc24-5">
          <mxGeometry y="151" width="240" height="33" as="geometry" />
        </mxCell>
        <mxCell id="gKzMiSkVcHjNWzmuuc24-9" value="Virus" style="swimlane;fontStyle=1;align=center;verticalAlign=top;childLayout=stackLayout;horizontal=1;startSize=26;horizontalStack=0;resizeParent=1;resizeParentMax=0;resizeLast=0;collapsible=1;marginBottom=0;whiteSpace=wrap;html=1;" vertex="1" parent="1">
          <mxGeometry x="60" y="338" width="240" height="251" as="geometry" />
        </mxCell>
        <mxCell id="gKzMiSkVcHjNWzmuuc24-10" value="&lt;div&gt;- _health: int&lt;/div&gt;&lt;div&gt;- _name: string&lt;/div&gt;&lt;div&gt;- _posX: int&lt;/div&gt;&lt;div&gt;- _posY: int&lt;/div&gt;&lt;div&gt;- _isDead: bool&lt;/div&gt;&lt;div&gt;&lt;br&gt;&lt;/div&gt;&lt;div&gt;+ Health: int { get; set; }&lt;/div&gt;&lt;div&gt;+ Name: string { get; set; }&lt;/div&gt;&lt;div&gt;+ X: int { get; set; }&lt;/div&gt;&lt;div&gt;+ Y: int { get; set; }&lt;/div&gt;&lt;div&gt;+ IsDead: bool { get; set; }&lt;/div&gt;" style="text;strokeColor=none;fillColor=none;align=left;verticalAlign=top;spacingLeft=4;spacingRight=4;overflow=hidden;rotatable=0;points=[[0,0.5],[1,0.5]];portConstraint=eastwest;whiteSpace=wrap;html=1;" vertex="1" parent="gKzMiSkVcHjNWzmuuc24-9">
          <mxGeometry y="26" width="240" height="179" as="geometry" />
        </mxCell>
        <mxCell id="gKzMiSkVcHjNWzmuuc24-11" value="" style="line;strokeWidth=1;fillColor=none;align=left;verticalAlign=middle;spacingTop=-1;spacingLeft=3;spacingRight=3;rotatable=0;labelPosition=right;points=[];portConstraint=eastwest;strokeColor=inherit;" vertex="1" parent="gKzMiSkVcHjNWzmuuc24-9">
          <mxGeometry y="205" width="240" height="12" as="geometry" />
        </mxCell>
        <mxCell id="gKzMiSkVcHjNWzmuuc24-12" value="+ Update(int): void" style="text;strokeColor=none;fillColor=none;align=left;verticalAlign=top;spacingLeft=4;spacingRight=4;overflow=hidden;rotatable=0;points=[[0,0.5],[1,0.5]];portConstraint=eastwest;whiteSpace=wrap;html=1;" vertex="1" parent="gKzMiSkVcHjNWzmuuc24-9">
          <mxGeometry y="217" width="240" height="34" as="geometry" />
        </mxCell>
      </root>
    </mxGraphModel>
  </diagram>
</mxfile>
